<svg width="161" height="161" viewBox="0 0 161 161" fill="none"
  xmlns="http://www.w3.org/2000/svg">
  <rect width="161" height="171.465" fill="#FB4846"/>
  <path d="M71.6054 78.0117C71.4507 78.0117 71.284 78.0117 71.0865 77.9902C70.8889 77.9688 70.677 78.0117 70.5128 78.0117H53.6547C53.4904 78.0117 53.3119 78.0117 53.0976 77.9902C52.8834 77.9688 52.7168 78.0117 52.562 78.0117C50.6371 78.0098 48.7915 77.2443 47.4303 75.8831C46.0692 74.5219 45.3036 72.6764 45.3018 70.7514V51.708C45.3018 49.7825 46.0667 47.9358 47.4282 46.5742C48.7898 45.2127 50.6365 44.4478 52.562 44.4478C54.4876 44.4478 56.3343 45.2127 57.6958 46.5742C59.0574 47.9358 59.8223 49.7825 59.8223 51.708V54.0885C59.8223 54.6882 60.0606 55.2634 60.4847 55.6875C60.9088 56.1116 61.484 56.3499 62.0837 56.3499C62.6835 56.3499 63.2587 56.1116 63.6828 55.6875C64.1069 55.2634 64.3451 54.6882 64.3451 54.0885V51.708C64.3451 49.7825 65.11 47.9358 66.4716 46.5742C67.8332 45.2127 69.6799 44.4478 71.6054 44.4478C73.5309 44.4478 75.3776 45.2127 76.7392 46.5742C78.1008 47.9358 78.8657 49.7825 78.8657 51.708V70.7514C78.8638 72.6764 78.0983 74.5219 76.7371 75.8831C75.3759 77.2443 73.5304 78.0098 71.6054 78.0117Z" fill="#FFF7EF"/>
  <path d="M89.6963 78.0117C87.7714 78.0098 85.9258 77.2443 84.5646 75.8831C83.2035 74.5219 82.4379 72.6764 82.436 70.7514C82.436 70.5943 82.436 70.43 82.4575 70.2325C82.4789 70.0349 82.436 69.8254 82.436 69.6588V52.8007C82.436 52.634 82.436 52.4555 82.4575 52.2436C82.4789 52.0318 82.436 51.8651 82.436 51.708C82.4379 49.7831 83.2035 47.9375 84.5646 46.5763C85.9258 45.2152 87.7714 44.4496 89.6963 44.4478H108.74C110.665 44.4478 112.512 45.2127 113.873 46.5742C115.235 47.9358 116 49.7825 116 51.708C116 53.6336 115.235 55.4803 113.873 56.8418C112.512 58.2034 110.665 58.9683 108.74 58.9683H106.359C105.759 58.9683 105.184 59.2066 104.76 59.6307C104.336 60.0548 104.098 60.63 104.098 61.2297C104.098 61.8295 104.336 62.4047 104.76 62.8288C105.184 63.2529 105.759 63.4911 106.359 63.4911H108.74C110.665 63.4911 112.512 64.256 113.873 65.6176C115.235 66.9792 116 68.8258 116 70.7514C116 72.6769 115.235 74.5236 113.873 75.8852C112.512 77.2468 110.665 78.0117 108.74 78.0117H89.6963Z" fill="#FFF7EF"/>
  <path d="M71.8432 114.908C69.9182 114.906 68.0726 114.141 66.7115 112.78C65.3503 111.418 64.5848 109.573 64.5829 107.648V105.267C64.5829 104.668 64.3447 104.093 63.9206 103.668C63.4965 103.244 62.9213 103.006 62.3215 103.006C61.7218 103.006 61.1466 103.244 60.7225 103.668C60.2984 104.093 60.0601 104.668 60.0601 105.267V107.648C60.0601 109.573 59.2952 111.42 57.9336 112.782C56.5721 114.143 54.7254 114.908 52.7998 114.908C50.8743 114.908 49.0276 114.143 47.666 112.782C46.3045 111.42 45.5396 109.573 45.5396 107.648V88.6045C45.5414 86.6796 46.307 84.834 47.6681 83.4728C49.0293 82.1117 50.8749 81.3461 52.7998 81.3442C52.9546 81.3442 53.1212 81.3442 53.3188 81.3657C53.5163 81.3871 53.7282 81.3442 53.8948 81.3442H70.7506C70.9148 81.3442 71.0934 81.3442 71.3076 81.3657C71.5218 81.3871 71.6885 81.3442 71.8432 81.3442C73.7682 81.3461 75.6137 82.1117 76.9749 83.4728C78.3361 84.834 79.1016 86.6796 79.1035 88.6045V107.648C79.1016 109.573 78.3361 111.418 76.9749 112.78C75.6137 114.141 73.7682 114.906 71.8432 114.908Z" fill="#FFF7EF"/>
  <path d="M91.7197 114.432C89.2575 114.432 86.8962 113.454 85.1551 111.713C83.4141 109.972 82.436 107.611 82.436 105.148C82.436 102.686 83.4141 100.325 85.1551 98.5839C86.8962 96.8429 89.2575 95.8648 91.7197 95.8648H92.0767C92.4181 95.8652 92.7559 95.7955 93.0693 95.6602C93.3827 95.5248 93.665 95.3267 93.8988 95.0779C94.1326 94.8292 94.3129 94.5351 94.4286 94.214C94.5443 93.8928 94.5929 93.5513 94.5714 93.2106C94.5189 92.5642 94.2221 91.9619 93.7415 91.5264C93.2609 91.0909 92.6324 90.8547 91.9839 90.8659H87.4349C86.1091 90.8659 84.8376 90.3393 83.9002 89.4018C82.9627 88.4643 82.436 87.1928 82.436 85.867C82.436 84.5413 82.9627 83.2698 83.9002 82.3323C84.8376 81.3948 86.1091 80.8682 87.4349 80.8682H106.478C109.004 80.8682 111.425 81.8713 113.211 83.657C114.997 85.4427 116 87.8645 116 90.3898C116 92.9152 114.997 95.337 113.211 97.1227C111.425 98.9084 109.004 99.9115 106.478 99.9115H106.452C105.804 99.9003 105.175 100.136 104.695 100.572C104.214 101.008 103.917 101.61 103.865 102.256C103.843 102.597 103.892 102.938 104.007 103.26C104.123 103.581 104.303 103.875 104.537 104.124C104.771 104.372 105.053 104.57 105.367 104.706C105.68 104.841 106.018 104.911 106.359 104.91H111.239C112.502 104.91 113.713 105.412 114.606 106.305C115.498 107.198 116 108.409 116 109.671C116 110.934 115.498 112.145 114.606 113.038C113.713 113.931 112.502 114.432 111.239 114.432H91.7197Z" fill="#FFF7EF"/>
</svg>
