<svg width="172" height="179" viewBox="0 0 172 179" fill="none"
  xmlns="http://www.w3.org/2000/svg">
  <g clip-path="url(#clip0_644_2708)">
    <path d="M1.74513 89.6551C9.13462 65.7674 21.986 59.1073 28.4203 63.3708C35.037 67.7124 32.0152 81.8836 31.1208 85.6695C30.2264 89.4554 29.8617 97.9043 28.9933 101.56C27.1959 109.132 23.6184 114.924 15.378 114.924C7.13753 114.924 0.0692603 110.226 0.451326 98.0606C0.550284 95.2176 0.984552 92.3963 1.74513 89.6551Z" fill="#FB4846" stroke="#1B1717" stroke-width="0.868331" stroke-miterlimit="10"/>
    <path d="M169.186 89.4987C164.488 74.329 157.602 66.1232 151.541 63.2317V32.6317C151.541 32.1628 151.541 31.6939 151.541 31.225C151.439 26.4687 150.256 21.798 148.082 17.5662C145.908 13.3345 142.8 9.65252 138.994 6.7989C122.495 -5.62691 98.6772 0.920301 90.0634 19.6589L86.2427 27.9601C85.9161 28.6712 85.3923 29.2736 84.7335 29.6959C84.0748 30.1182 83.3087 30.3427 82.5262 30.3427C81.7437 30.3427 80.9777 30.1182 80.3189 29.6959C79.6602 29.2736 79.1364 28.6712 78.8097 27.9601L74.9978 19.6589C66.3752 0.920301 42.5309 -5.62691 26.0587 6.7989C22.2518 9.65162 19.1444 13.3336 16.9719 17.5657C14.7995 21.7978 13.619 26.4689 13.52 31.225C13.52 31.6939 13.52 32.1628 13.52 32.6317V88.9516C13.5205 99.16 17.341 108.999 24.23 116.532C31.119 124.065 40.5777 128.748 50.7453 129.659C50.7453 129.893 50.7453 130.119 50.7453 130.362C51.5442 144.473 49.6946 147.555 44.5368 148.363C30.8866 150.516 26.3018 157.914 26.1715 161.987C25.7808 173.466 36.8173 175.62 49.9464 175.62C62.1638 175.62 72.801 170.41 73.5564 163.524C74.3118 156.638 74.6244 140.565 74.7286 129.824H98.3819C100.249 143.057 96.7495 147.399 92.1994 149.709C79.5305 156.16 77.7331 164.887 77.9936 168.977C78.723 180.43 90.1502 179.345 102.185 176.201C114.003 173.102 125.118 165.643 125.778 158.54C126.394 151.81 125.118 137.7 124.041 127.601C133.101 124.483 140.783 118.289 145.749 110.095C147.946 112.978 151.081 114.776 155.657 114.776C163.897 114.776 170.957 110.069 170.584 97.9041C170.446 95.0575 169.977 92.2365 169.186 89.4987Z" fill="#FB4846" stroke="#1B1717" stroke-width="0.868331" stroke-miterlimit="10"/>
    <path d="M58.3754 58.7246C58.4097 48.8936 53.9668 40.9083 48.4518 40.8891C42.9368 40.8698 38.4383 48.8239 38.4039 58.6549C38.3696 68.4859 42.8126 76.4712 48.3275 76.4904C53.8425 76.5097 58.3411 68.5556 58.3754 58.7246Z" fill="white" stroke="#1B1717" stroke-width="0.868331" stroke-miterlimit="10"/>
    <path d="M51.7384 62.8273C51.7558 57.8398 48.7881 53.7863 45.1098 53.7734C41.4316 53.7606 38.4357 57.7933 38.4182 62.7808C38.4008 67.7682 41.3685 71.8217 45.0468 71.8345C48.725 71.8474 51.721 67.8147 51.7384 62.8273Z" fill="#1B1717"/>
    <path d="M88.7778 58.7249C88.8121 48.8938 84.3691 40.9086 78.8542 40.8893C73.3392 40.8701 68.8406 48.8241 68.8063 58.6551C68.772 68.4862 73.2149 76.4714 78.7299 76.4907C84.2449 76.5099 88.7434 68.5559 88.7778 58.7249Z" fill="white" stroke="#1B1717" stroke-width="0.868331" stroke-miterlimit="10"/>
    <path d="M82.67 62.8189C82.6874 57.8314 79.7197 53.7779 76.0414 53.765C72.3632 53.7522 69.3673 57.7849 69.3499 62.7724C69.3325 67.7598 72.3002 71.8134 75.9784 71.8262C79.6566 71.8391 82.6526 67.8063 82.67 62.8189Z" fill="#1B1717"/>
    <path d="M139.905 85.4958C140.774 89.2818 141.164 97.7306 142.033 101.386C143.83 108.958 147.399 114.75 155.648 114.75C163.897 114.75 170.948 110.044 170.575 97.8869C170.472 95.0415 170.037 92.2177 169.281 89.4728" stroke="#1B1717" stroke-width="0.868331" stroke-miterlimit="10"/>
  </g>
  <defs>
    <clipPath id="clip0_644_2708">
      <rect width="171.018" height="178.755" fill="white"/>
    </clipPath>
  </defs>
</svg>
