<svg width="161" height="161" viewBox="0 0 161 161" fill="none"
  xmlns="http://www.w3.org/2000/svg">
  <g clip-path="url(#clip0_644_2822)">
    <rect width="161" height="161" fill="white"/>
    <path d="M-6.50879 186.266V16.9375C-6.48798 -2.00483 1.04605 -20.1654 14.4403 -33.5597C27.8346 -46.954 45.9952 -54.488 64.9375 -54.5088H95.0098C113.952 -54.488 132.113 -46.954 145.507 -33.5597C158.901 -20.1654 166.435 -2.00483 166.456 16.9375V186.266H-6.50879Z" fill="#FFE2A2"/>
    <path d="M95.01 -54.0172C113.822 -53.9964 131.858 -46.5142 145.16 -33.212C158.462 -19.9099 165.944 -1.87434 165.965 16.9377V185.775H-6.01724V16.9377C-5.99644 -1.87434 1.48584 -19.9099 14.788 -33.212C28.0901 -46.5142 46.1257 -53.9964 64.9377 -54.0172H95.01ZM95.01 -55H64.9377C45.8586 -55 27.561 -47.4209 14.07 -33.93C0.579102 -20.439 -7 -2.14137 -7 16.9377V186.758H166.948V16.9377C166.948 -2.14137 159.369 -20.439 145.878 -33.93C132.387 -47.4209 114.089 -55 95.01 -55Z" fill="#FB4846"/>
    <path d="M175.564 31.3694C164.449 11.4391 137.404 7.40985 120.314 22.5246L112.747 29.2172C112.099 29.7912 111.3 30.1671 110.444 30.3003C109.589 30.4335 108.714 30.3183 107.922 29.9685C107.13 29.6187 106.455 29.0489 105.978 28.3269C105.501 27.6049 105.24 26.761 105.229 25.8955L105.071 15.7928C104.727 -7.01697 83.5195 -24.2939 61.3092 -19.0754C56.1848 -17.8884 51.398 -15.5504 47.3115 -12.2386C43.2249 -8.9268 39.9459 -4.7281 37.7231 0.0391808C37.497 0.501076 37.2809 1.02193 37.0646 1.44451L11.916 58.4443C7.07588 69.4099 6.78875 81.8488 11.1177 93.026C15.4467 104.203 24.0374 113.204 35.0009 118.048L76.4732 136.357C76.6023 137.288 76.8671 138.196 77.2594 139.05C79.785 144.553 84.689 156.612 83.9519 166.144C83.2148 175.677 86.3105 184.08 93.2094 187.765C93.5184 187.923 93.8172 188.1 94.1038 188.296C97.8005 190.713 102.017 192.222 106.408 192.698C117.965 194.074 128.097 188.767 129.011 180.905C129.689 175.205 125.346 169.702 118.506 166.577C116.976 165.887 115.651 164.812 114.662 163.456C113.673 162.1 113.054 160.51 112.865 158.843C112.484 154.828 111.639 150.87 110.349 147.05C119.088 147.023 127.633 144.463 134.948 139.681C142.263 134.898 148.035 128.098 151.565 120.102L176.724 63.1026C176.94 62.6308 177.137 62.1198 177.333 61.6776C179.356 56.8223 180.248 51.5705 179.941 46.3197C179.635 41.0688 178.138 35.9564 175.564 31.3694Z" fill="#FB4846"/>
    <path d="M-6.50879 186.266V16.9375C-6.48798 -2.00483 1.04605 -20.1654 14.4403 -33.5597C27.8346 -46.954 45.9952 -54.488 64.9375 -54.5088H81.5264C99.8548 -32.6523 99.4814 5.43928 80.5437 38.1159C67.306 61.0337 46.5895 78.1435 25.1261 83.8926L24.1433 84.1482L24.9295 84.7575C38.58 95.2926 49.577 110.181 56.7315 127.792C64.5935 147.261 66.8244 168.007 62.9523 186.266H-6.50879Z" fill="#FAABAB"/>
    <path d="M81.3005 -54.0172C99.3537 -32.2885 98.9017 5.40996 80.1606 37.8704C66.9916 60.6801 46.3931 77.7014 25.0476 83.421L23.0821 83.9321L24.6546 85.1409C38.2362 95.6367 49.2234 110.447 56.2895 127.979C64.0925 147.212 66.3135 167.702 62.5692 185.775H-6.01724V16.9377C-5.99644 -1.87434 1.48584 -19.9099 14.788 -33.212C28.0901 -46.5142 46.1257 -53.9964 64.9377 -54.0172H81.3005ZM81.7625 -55H64.9377C45.8586 -55 27.561 -47.4209 14.07 -33.93C0.579101 -20.439 -7 -2.14137 -7 16.9377V186.758H63.4144C67.2767 169.009 65.547 148.057 57.2525 127.606C49.8524 109.376 38.4229 94.4967 25.3032 84.3645C46.2064 78.7726 67.1292 62.4196 81.0155 38.3617C100.494 4.62375 99.9532 -33.5071 81.7625 -55Z" fill="#FB4846"/>
    <path d="M54.9132 86.5172C54.9132 95.1276 46.6335 102.241 36.2409 102.241C25.8483 102.241 17.5685 95.1276 17.5685 86.5172C17.5685 77.9068 25.8483 70.7931 36.2409 70.7931C46.6335 70.7931 54.9132 77.9068 54.9132 86.5172Z" fill="#FB4846" stroke="white" stroke-width="0.982755"/>
    <path d="M146.996 78.7368C151.01 68.3597 149.546 58.1217 143.725 55.8696C137.903 53.6175 129.93 60.2041 125.915 70.5812C121.9 80.9583 123.365 91.1963 129.186 93.4484C135.008 95.7005 142.981 89.1138 146.996 78.7368Z" fill="white"/>
    <path d="M141.673 72.1338C143.709 66.8693 142.213 61.3839 138.33 59.8819C134.448 58.3799 129.649 61.4299 127.613 66.6944C125.576 71.9589 127.072 77.4442 130.955 78.9463C134.837 80.4483 139.636 77.3983 141.673 72.1338Z" fill="#1B1717"/>
    <path d="M115.55 66.9482C119.565 56.5711 118.1 46.3331 112.279 44.081C106.457 41.8289 98.4839 48.4155 94.4693 58.7926C90.4547 69.1697 91.9193 79.4077 97.7406 81.6598C103.562 83.9119 111.535 77.3253 115.55 66.9482Z" fill="white"/>
    <path d="M110.226 60.3452C112.262 55.0808 110.766 49.5954 106.883 48.0933C103.001 46.5913 98.2024 49.6414 96.1657 54.9058C94.1291 60.1703 95.6254 65.6556 99.508 67.1577C103.391 68.6597 108.189 65.6097 110.226 60.3452Z" fill="#1B1717"/>
  </g>
  <defs>
    <clipPath id="clip0_644_2822">
      <rect width="161" height="161" fill="white"/>
    </clipPath>
  </defs>
</svg>
